<?xml version="1.0" standalone="no"?>
<!DOCTYPE svg PUBLIC "-//W3C//DTD SVG 20010904//EN"
 "http://www.w3.org/TR/2001/REC-SVG-20010904/DTD/svg10.dtd">
<svg version="1.0" xmlns="http://www.w3.org/2000/svg"
 width="500.000000pt" height="500.000000pt" viewBox="0 0 500.000000 500.000000"
 preserveAspectRatio="xMidYMid meet">

<g transform="translate(0.000000,500.000000) scale(0.100000,-0.100000)"
fill="#000000" stroke="none">
<path d="M892 3303 c-13 -3 -21 -10 -19 -17 3 -6 139 -248 304 -536 165 -289
326 -571 357 -627 32 -57 62 -103 66 -103 6 0 679 1171 729 1268 l12 22 -713
-1 c-392 -1 -723 -4 -736 -6z"/>
<path d="M2674 3299 c-3 -5 123 -233 279 -506 156 -274 319 -560 361 -635 43
-76 82 -138 86 -138 6 0 681 1174 729 1268 l12 23 -731 -2 c-403 -1 -733 -5
-736 -10z"/>
<path d="M2128 2168 l-367 -643 507 -2 c279 -2 610 1 735 5 l228 7 -134 235
c-352 623 -592 1040 -597 1040 -3 0 -171 -289 -372 -642z"/>
</g>
</svg>
